<svg width="1024" height="1024" viewBox="0 0 1024 1024" xmlns="http://www.w3.org/2000/svg">
  <defs>
    <!-- Gradient pour le corps du gecko -->
    <linearGradient id="bodyGradient" x1="0%" y1="0%" x2="100%" y2="100%">
      <stop offset="0%" style="stop-color:#4CAF50;stop-opacity:1" />
      <stop offset="100%" style="stop-color:#2E7D32;stop-opacity:1" />
    </linearGradient>
    
    <!-- Gradient pour les yeux -->
    <radialGradient id="eyeGradient" cx="30%" cy="30%" r="70%">
      <stop offset="0%" style="stop-color:#FFD700;stop-opacity:1" />
      <stop offset="100%" style="stop-color:#FFA000;stop-opacity:1" />
    </radialGradient>
    
    <!-- Gradient pour les pattes -->
    <linearGradient id="legGradient" x1="0%" y1="0%" x2="100%" y2="100%">
      <stop offset="0%" style="stop-color:#66BB6A;stop-opacity:1" />
      <stop offset="100%" style="stop-color:#388E3C;stop-opacity:1" />
    </linearGradient>
    
    <!-- Ombre portée -->
    <filter id="shadow" x="-20%" y="-20%" width="140%" height="140%">
      <feDropShadow dx="4" dy="8" stdDeviation="8" flood-color="#000000" flood-opacity="0.3"/>
    </filter>
  </defs>
  
  <!-- Fond circulaire -->
  <circle cx="512" cy="512" r="480" fill="url(#bodyGradient)"/>
  
  <!-- Corps du gecko -->
  <ellipse cx="512" cy="580" rx="280" ry="200" fill="url(#bodyGradient)"/>
  
  <!-- Tête -->
  <ellipse cx="512" cy="320" rx="180" ry="120" fill="url(#bodyGradient)"/>
  
  <!-- Yeux -->
  <circle cx="460" cy="300" r="25" fill="url(#eyeGradient)"/>
  <circle cx="564" cy="300" r="25" fill="url(#eyeGradient)"/>
  
  <!-- Pupilles -->
  <circle cx="460" cy="300" r="12" fill="#000000"/>
  <circle cx="564" cy="300" r="12" fill="#000000"/>
  
  <!-- Pattes -->
  <ellipse cx="380" cy="480" rx="25" ry="40" fill="url(#bodyGradient)"/>
  <ellipse cx="644" cy="480" rx="25" ry="40" fill="url(#bodyGradient)"/>
  <ellipse cx="380" cy="680" rx="25" ry="40" fill="url(#bodyGradient)"/>
  <ellipse cx="644" cy="680" rx="25" ry="40" fill="url(#bodyGradient)"/>
  
  <!-- Queue -->
  <path d="M 512 780 Q 480 850 420 920 Q 380 960 340 940 Q 320 920 340 900 Q 360 880 420 900 Z" fill="url(#bodyGradient)"/>
  
  <!-- Motifs sur le dos -->
  <ellipse cx="512" cy="520" rx="60" ry="20" fill="#1B5E20" opacity="0.3"/>
  <ellipse cx="512" cy="580" rx="80" ry="25" fill="#1B5E20" opacity="0.3"/>
  <ellipse cx="512" cy="640" rx="70" ry="20" fill="#1B5E20" opacity="0.3"/>
  
  <!-- Écailles décoratives -->
  <circle cx="480" cy="500" r="8" fill="#4CAF50" opacity="0.6"/>
  <circle cx="544" cy="500" r="8" fill="#4CAF50" opacity="0.6"/>
  <circle cx="512" cy="540" r="8" fill="#4CAF50" opacity="0.6"/>
  <circle cx="480" cy="580" r="8" fill="#4CAF50" opacity="0.6"/>
  <circle cx="544" cy="580" r="8" fill="#4CAF50" opacity="0.6"/>
  <circle cx="512" cy="620" r="8" fill="#4CAF50" opacity="0.6"/>
  
  <!-- Ventre -->
  <ellipse cx="512" cy="620" rx="200" ry="120" fill="#81C784" opacity="0.4"/>
  
  <!-- Bordure extérieure -->
  <circle cx="512" cy="512" r="480" fill="none" stroke="#2E7D32" stroke-width="8" opacity="0.3"/>
</svg> 